HIERARCHY
ROOT root
{
	OFFSET	0	13.1	24.9
	CHANNELS 6  Xposition Yposition Zposition Xrotation Yrotation Zrotation
	JOINT spine_1
	{
		OFFSET	0	9.99999	0
		CHANNELS 3  Xrotation Yrotation Zrotation
		JOINT spine_2
		{
			OFFSET	0	112	-10
			CHANNELS 3  Xrotation Yrotation Zrotation
			JOINT spine_3
			{
				OFFSET	0	206.5	19.3
				CHANNELS 3  Xrotation Yrotation Zrotation
				JOINT spine_4
				{
					OFFSET	0	110.4	14.6
					CHANNELS 3  Xrotation Yrotation Zrotation
					JOINT neck_1
					{
						OFFSET	0	71.8	-50.3
						CHANNELS 3  Xrotation Yrotation Zrotation
						JOINT neck_2
						{
							OFFSET	0	86.2	-25.8
							CHANNELS 3  Xrotation Yrotation Zrotation
							JOINT head_ee
							{
								OFFSET	0	179.8	-8.7
								CHANNELS 3  Xrotation Yrotation Zrotation
								End Site
								{
									OFFSET	1	0	0
								}
							}
						}
					}
					JOINT left_clavicle
					{
						OFFSET	-43.2	22.4	-70.8
						CHANNELS 3  Xrotation Yrotation Zrotation
						JOINT left_shoulder
						{
							OFFSET	-93.9	-5.79999	48.7
							CHANNELS 3  Xrotation Yrotation Zrotation
							JOINT left_elbow
							{
								OFFSET	-291.4	-30.8	15.2
								CHANNELS 3  Xrotation Yrotation Zrotation
								JOINT left_lowarm_twist
								{
									OFFSET	-110.7	-3.89999	13.6
									CHANNELS 3  Xrotation Yrotation Zrotation
									JOINT left_hand
									{
										OFFSET	-110.7	-3.89999	13.6
										CHANNELS 3  Xrotation Yrotation Zrotation
										JOINT left_ee
										{
											OFFSET	-80.8	-5.10001	12.1
											CHANNELS 3  Xrotation Yrotation Zrotation
											End Site
											{
												OFFSET	1	0	0
											}
										}
									}
								}
							}
						}
					}
					JOINT right_clavicle
					{
						OFFSET	43.2	22.4	-70.8
						CHANNELS 3  Xrotation Yrotation Zrotation
						JOINT right_shoulder
						{
							OFFSET	93.9	-5.79999	48.7
							CHANNELS 3  Xrotation Yrotation Zrotation
							JOINT right_elbow
							{
								OFFSET	291.4	-30.8	15.2
								CHANNELS 3  Xrotation Yrotation Zrotation
								JOINT right_lowarm_twist
								{
									OFFSET	110.7	-3.89999	13.6
									CHANNELS 3  Xrotation Yrotation Zrotation
									JOINT right_hand
									{
										OFFSET	110.7	-3.89999	13.6
										CHANNELS 3  Xrotation Yrotation Zrotation
										JOINT right_ee
										{
											OFFSET	80.8	-5.10001	12.1
											CHANNELS 3  Xrotation Yrotation Zrotation
											End Site
											{
												OFFSET	1	0	0
											}
										}
									}
								}
							}
						}
					}
				}
			}
		}
	}
	JOINT left_hip
	{
		OFFSET	-82.8	-127.5	0.300001
		CHANNELS 3  Xrotation Yrotation Zrotation
		JOINT left_knee
		{
			OFFSET	-28.2	-396.7	2.2
			CHANNELS 3  Xrotation Yrotation Zrotation
			JOINT left_ankle
			{
				OFFSET	-11.7	-411.3	35.4
				CHANNELS 3  Xrotation Yrotation Zrotation
				JOINT left_toes
				{
					OFFSET	0	-60	-88.6
					CHANNELS 3  Xrotation Yrotation Zrotation
					JOINT left_foot_ee
					{
						OFFSET	-22.5	-16.5	-42.2
						CHANNELS 3  Xrotation Yrotation Zrotation
						End Site
						{
							OFFSET	1	0	0
						}
					}
				}
			}
		}
	}
	JOINT right_hip
	{
		OFFSET	82.8	-127.5	0.300001
		CHANNELS 3  Xrotation Yrotation Zrotation
		JOINT right_knee
		{
			OFFSET	28.2	-396.7	2.2
			CHANNELS 3  Xrotation Yrotation Zrotation
			JOINT right_ankle
			{
				OFFSET	11.7	-411.3	35.4
				CHANNELS 3  Xrotation Yrotation Zrotation
				JOINT right_toes
				{
					OFFSET	0	-60	-88.6
					CHANNELS 3  Xrotation Yrotation Zrotation
					JOINT right_foot_ee
					{
						OFFSET	22.5	-16.5	-42.2
						CHANNELS 3  Xrotation Yrotation Zrotation
						End Site
						{
							OFFSET	1	0	0
						}
					}
				}
			}
		}
	}
}
MOTION
Frames: 8
Frame Time: 0.02
1237.99 657.226 -1564.5 -108.889 82.4186 111.179 2.98176 -0.233048 -1.42406 2.98287 -0.141968 -1.436 2.98611 0.0881073 -1.44031 2.98324 -0.140444 -1.43615 -18.548 8.0002 4.56633 -18.6982 12.9733 7.40798 -0.0 0.0 -0.0 4.43601 18.6926 8.89178 13.263 -36.096 70.1164 3.67779 -61.2223 2.17649 65.228 -2.26082 -7.56847 -2.88688 14.4364 -12.145 -0.0 0.0 -0.0 10.8847 -24.8455 -17.8757 -25.1287 2.64078 -49.2297 0.193919 5.48725 -0.00929298 -39.6856 2.91778 -4.03798 7.47785 -35.0773 -69.4685 0.0 0.0 0.0 -4.87369 -4.3432 -6.31616 -12.9436 0.312964 1.95751 32.788 -12.3023 -4.39546 4.38437 -0.0 -0.0 -0.0 0.0 -0.0 33.5753 -6.28186 -2.75592 4.60786 0.21699 0.67348 -10.5675 4.96771 -1.62257 -16.7562 0.0 0.0 0.0 0.0 0.0 
1211.85 658.165 -1568.57 -103.259 82.0631 105.551 3.11887 -0.161425 -1.43731 3.12001 -0.0696476 -1.44467 3.12138 0.157516 -1.43775 3.1185 -0.0715022 -1.44458 -18.3338 8.48361 3.71169 -18.5489 14.3404 6.787 -0.0 0.0 -0.0 4.08843 19.0089 8.36137 10.7887 -36.3288 69.8773 3.38426 -59.1702 1.92175 64.6738 -2.20723 -7.52176 -2.75717 12.9081 -12.1275 -0.0 0.0 -0.0 11.0607 -25.2194 -18.0509 -25.0451 2.70151 -49.4416 0.214157 6.05583 -0.0113282 -38.9233 2.83739 -3.98226 7.43818 -34.973 -68.7592 0.0 0.0 0.0 -5.19498 -4.10258 -6.32725 -13.6296 0.317128 2.06269 32.2216 -11.8028 -4.32411 5.67534 -0.0 -0.0 -0.0 0.0 -0.0 34.1501 -6.18122 -2.93215 1.51564 0.0653733 0.223382 -11.8314 4.69415 -1.81747 -14.8751 0.0 0.0 0.0 0.0 0.0 
1195.46 656.513 -1573.4 -100.331 81.5939 102.288 3.47109 -0.143826 -1.45186 3.47226 -0.0511585 -1.45807 3.47304 0.168989 -1.44915 3.47012 -0.061973 -1.45765 -16.5805 7.99901 4.79286 -16.6786 12.6409 7.36786 -0.0 0.0 -0.0 3.81786 19.0528 7.95174 8.60197 -36.8041 69.8998 3.12237 -57.1041 1.69928 64.3583 -2.17692 -7.49494 -2.71101 12.5917 -11.9962 -0.0 0.0 -0.0 11.0285 -25.1093 -18.0288 -24.3273 3.25191 -50.4078 0.216671 6.12639 -0.0115949 -40.2392 2.97664 -4.07778 7.47899 -35.0929 -69.48 0.0 0.0 0.0 -5.16192 -5.82825 -6.19052 -14.6644 0.321028 2.2214 32.6258 -10.9266 -4.34586 7.82988 -0.0 -0.0 -0.0 0.0 -0.0 34.2608 -6.16228 -3.08065 -0.287666 -0.0117384 -0.0425846 -10.6019 3.88908 -1.6208 -14.4129 0.0 0.0 0.0 0.0 0.0 
1172.71 657.234 -1577.84 -101.781 81.7846 103.778 3.59357 -0.126945 -1.38757 3.59464 -0.0384021 -1.39283 3.59507 0.168831 -1.3831 3.5924 -0.0517008 -1.3924 -14.864 8.11224 4.94846 -14.9267 12.5687 7.34764 -0.0 0.0 -0.0 3.35719 18.7423 7.24938 6.76814 -36.3685 69.869 2.8796 -54.9578 1.49791 64.2962 -2.17097 -7.48964 -2.72073 13.1079 -11.7875 -0.0 0.0 -0.0 11.1383 -25.3803 -18.1277 -23.6622 3.02126 -50.8189 0.244432 6.90419 -0.0147451 -39.0474 2.85043 -3.99141 7.39273 -34.8454 -67.9876 0.0 0.0 0.0 -5.328 -5.837 -6.63638 -15.8648 0.321959 2.40557 31.6107 -11.8874 -4.26158 8.6943 -0.0 -0.0 -0.0 0.0 -0.0 34.7894 -6.39612 -3.19832 -4.4514 -0.157512 -0.664827 -8.63543 3.36801 -1.31382 -13.3174 0.0 0.0 0.0 0.0 0.0 
1152.89 655.806 -1581.33 -96.477 81.3973 97.6798 3.77307 -0.0565137 -1.34822 3.77408 0.0293837 -1.34908 3.77286 0.225257 -1.33047 3.77039 0.0123265 -1.34935 -16.3381 9.54463 4.2496 -16.5434 15.8926 7.40233 -0.0 0.0 -0.0 3.33776 20.5526 7.25607 3.02091 -37.2759 68.8091 2.52548 -51.3553 1.21437 63.7265 -2.11669 -7.44074 -2.62837 13.3105 -11.0888 -0.0 0.0 -0.0 11.4927 -25.0849 -18.7251 -23.091 3.66453 -50.7272 0.262042 7.39625 -0.0169368 -39.1956 2.86602 -4.00229 7.44615 -35.0126 -68.8862 0.0 0.0 0.0 -4.77497 -6.52673 -5.78089 -19.2768 0.303543 2.92867 33.1708 -10.5236 -4.39297 9.98409 -0.0 -0.0 -0.0 0.0 -0.0 33.9328 -6.22965 -3.26774 -4.36656 -0.154995 -0.65205 -3.29863 2.63105 -0.495633 -13.2129 0.0 0.0 0.0 0.0 0.0 
1123.6 659.593 -1583.1 -97.8815 81.6105 98.788 3.94336 0.0638659 -1.20329 3.94415 0.140299 -1.19679 3.94076 0.30945 -1.16458 3.93889 0.121657 -1.19883 -15.2133 8.73985 3.36222 -15.375 14.7477 6.12393 -0.0 0.0 -0.0 3.44419 20.8287 7.41629 -0.870288 -37.034 67.8824 2.21062 -47.5921 0.974917 62.2066 -1.97427 -7.30768 -2.57389 12.9918 -10.9053 -0.0 0.0 -0.0 11.6355 -25.1407 -18.9248 -22.5322 4.64807 -50.9637 0.284039 8.00939 -0.0198854 -40.3907 2.99281 -4.08858 7.47734 -35.0652 -69.4672 0.0 0.0 0.0 -3.13327 -7.18983 -6.0093 -25.884 0.179588 3.93442 31.9579 -10.1649 -4.25944 12.0882 -0.0 -0.0 -0.0 0.0 -0.0 32.2255 -6.19419 -3.36883 -5.85572 -0.196424 -0.876825 1.11559 0.672839 0.164863 -14.6706 0.0 0.0 0.0 0.0 0.0 
1103.91 658.443 -1587.76 -103.331 81.683 104.063 4.27283 -0.0501882 -1.12938 4.27354 0.0217744 -1.13029 4.27265 0.176164 -1.11669 4.27091 -0.0023949 -1.13049 -14.4401 8.93391 0.478139 -14.671 16.7766 3.37553 -0.0 0.0 -0.0 2.99844 20.5288 6.75821 -4.74697 -37.46 66.8806 1.99521 -44.6598 0.81958 61.2288 -1.88454 -7.22011 -2.79599 15.8379 -10.8177 -0.0 0.0 -0.0 11.7257 -24.9612 -19.1056 -22.0269 5.36226 -51.7462 0.321574 9.05126 -0.0254532 -41.097 3.06858 -4.13833 7.47011 -35.1673 -69.2471 0.0 0.0 0.0 -2.41861 -8.08271 -6.10887 -28.3739 0.102905 4.30884 32.8497 -10.1201 -4.35116 13.8839 -0.0 -0.0 -0.0 0.0 -0.0 30.6699 -6.25831 -3.03937 -7.54009 -0.236222 -1.13224 8.41018 0.77181 1.21602 -15.4325 0.0 0.0 0.0 0.0 0.0 
1088.2 662.234 -1591.3 -108.179 81.6028 108.806 4.41572 -0.0739868 -1.09848 4.41639 -0.00394207 -1.10096 4.416 0.143942 -1.09152 4.41434 -0.0302387 -1.10055 -15.4404 9.15298 -0.756169 -15.7443 17.9642 2.45436 -0.0 0.0 -0.0 2.94899 20.483 6.68447 -7.86125 -37.2819 66.4478 1.81409 -41.9403 0.695329 60.4783 -1.81669 -7.15187 -2.91787 17.6713 -10.5879 -0.0 0.0 -0.0 11.7367 -24.9235 -19.1317 -21.7104 6.32128 -52.8894 0.350378 9.84675 -0.030182 -42.3422 3.20363 -4.22376 7.45295 -35.091 -68.9635 0.0 0.0 0.0 -1.72487 -9.20581 -6.28203 -29.6883 0.0558775 4.50507 31.7225 -9.58377 -4.22261 15.1282 -0.0 -0.0 -0.0 0.0 -0.0 29.5317 -6.23965 -2.7879 -8.66218 -0.258558 -1.30297 12.7862 -0.0203881 1.81548 -16.5709 0.0 0.0 0.0 0.0 0.0 
